<?xml version="1.0" encoding="UTF-8" standalone="no"?>
<svg width="1440px" height="457px" viewBox="0 0 1440 457" version="1.1" xmlns="http://www.w3.org/2000/svg" xmlns:xlink="http://www.w3.org/1999/xlink">
    <!-- Generator: Sketch 39.1 (31720) - http://www.bohemiancoding.com/sketch -->
    <title>wave</title>
    <desc>Created with Sketch.</desc>
    <defs></defs>
    <g stroke="none" stroke-width="1" fill="none" fill-rule="evenodd">
        <g id="Landing-Page" transform="translate(0.000000, -3502.000000)">
            <g id="Signup" transform="translate(-205.000000, 3502.000000)">
                <g id="Background">
                    <g id="wave">
                        <path d="M73.0848409,274.096008 C254.749218,341.311074 339.121332,214.223647 560.486899,188.862648 C674.515805,175.798797 775.118732,203.177011 876.319137,175.056503 C1114.69657,108.818682 1066.92585,79.1350633 1204.53075,53.0670175 C1342.13564,26.9989716 1387.77025,112.323605 1613.46385,148.214657 C1839.15745,184.105709 1750.23903,175.056504 1750.23903,175.056504 L1563.12889,443.699226 L66.1875341,449.523445 C66.1875341,449.523445 -85.8347087,215.296434 73.0848409,274.096008 Z" id="Rectangle-59-Copy-2" fill="#C1E6FF" transform="translate(884.064471, 248.858971) scale(-1, 1) translate(-884.064471, -248.858971) "></path>
                        <path d="M59.8141546,75.7466555 C208.602218,141.522648 314.5087,-62.1719752 512.427434,21.3001822 C615.327154,64.6981031 807.473011,200.537231 924.999975,214.503754 C1060.17581,230.567612 1135.40217,187.789631 1246.31327,214.503756 C1352.91404,240.179688 1342.52378,354.861802 1568.21738,390.752854 C1793.91099,426.643906 1781.77512,175.056504 1781.77512,175.056504 L1691.66794,456.679673 L205.000006,442.10994 C205.000006,442.10994 -88.9739088,9.97066307 59.8141546,75.7466555 Z" id="Rectangle-59" fill="#9AD6FF"></path>
                        <path d="M100.150022,132.66667 C248.938086,198.442662 368.838875,32.5666182 566.757609,116.038776 C669.657328,159.436696 671.314528,300.590185 788.841492,314.556708 C924.017326,330.620566 953.836112,231.300453 1093.74325,246.404612 C1181.54003,255.883017 1305.9076,389.991266 1388.25842,428.768641 C1524.70515,493.018702 1645,407.638729 1645,407.638729 L1645.00004,456.144528 L204.999994,456.144528 C204.999994,456.144528 -48.6380409,66.8906776 100.150022,132.66667 Z" id="Rectangle-59-Copy" fill="#78C8FF"></path>
                    </g>
                </g>
            </g>
        </g>
    </g>
</svg>
