<?xml version="1.0" encoding="UTF-8" standalone="no"?>
<svg width="1260px" height="898px" viewBox="0 0 1260 898" version="1.1" xmlns="http://www.w3.org/2000/svg" xmlns:xlink="http://www.w3.org/1999/xlink">
    <!-- Generator: Sketch 39.1 (31720) - http://www.bohemiancoding.com/sketch -->
    <title>Header - Background</title>
    <desc>Created with Sketch.</desc>
    <defs>
        <path d="M60.0661303,852.366152 C223.658873,871.678285 196.492164,792.957279 309.458595,755.945925 C422.425026,718.934572 507.008484,933.729311 631.135505,908.329287 C755.262527,882.929264 685.159969,734.808274 769.531159,646.598542 C853.902348,558.38881 1008.77916,635.205019 1066.45135,556.963618 C1124.12354,478.722216 962.214966,323.646333 1040,213.450212 C1117.78503,103.254091 1234.98669,180.077913 1330.38398,145.719454 C1425.78126,111.360994 1442.97407,0.550111516 1442.97407,0.550111516 L118.891303,23.2535009 C118.891303,23.2535009 -103.526613,833.054018 60.0661303,852.366152 Z" id="path-1"></path>
    </defs>
    <g stroke="none" stroke-width="1" fill="none" fill-rule="evenodd">
        <g id="Landing-Page" transform="translate(-180.000000, 0.000000)">
            <g id="Header" transform="translate(109.000000, -13.000000)">
                <g id="Header---Background" transform="translate(790.500000, 455.500000) scale(-1, 1) translate(-790.500000, -455.500000) translate(69.000000, 0.000000)">
                    <mask id="mask-2" fill="white">
                        <use xlink:href="#path-1"></use>
                    </mask>
                    <use id="Path-35" fill="#4B6FD2" xlink:href="#path-1"></use>
                    <path d="M38.4575747,820.12964 C202.050318,839.441774 237.240311,749.826663 350.206742,712.815309 C463.173173,675.803956 513.772073,843.655579 640.702195,804.122926 C767.632317,764.590274 720.744824,609.304704 805.116013,521.094972 C889.487203,432.88524 1056.90378,577.705454 1114.57597,499.464052 C1172.24817,421.22265 1002.22295,261.102403 1065.97551,123.189279 C1129.72807,-14.7238455 1381.83697,7.21060317 1439.30547,-20.4493735 C1541.22075,-69.5018871 98.8913027,43.2535009 98.8913027,43.2535009 C98.8913027,43.2535009 -125.135168,800.817507 38.4575747,820.12964 Z" id="Path-35-Copy" fill="#5075DB" mask="url(#mask-2)"></path>
                </g>
            </g>
        </g>
    </g>
</svg>
